<svg width="70" height="70" viewBox="0 0 70 70" fill="none" xmlns="http://www.w3.org/2000/svg">
<rect x="0.5" y="0.5" width="69" height="69" rx="34.5" fill="#1E1D1D"/>
<rect x="0.5" y="0.5" width="69" height="69" rx="34.5" stroke="#EBEBEB"/>
<g clip-path="url(#clip0_16_23310)">
<path d="M20.2048 41.1383H22.1788V41.4115H21.3507V43.6214H21.0378V41.4115H20.2096V41.1383H20.2048Z" fill="#EBEBEB"/>
<path d="M24.2346 41.1383H25.9967V41.4115H24.5476V42.1977H25.8619V42.4613H24.5476V43.3338H26.0353V43.6214H24.2346V41.1383Z" fill="#EBEBEB"/>
<path d="M28.144 41.1383H29.3092C29.7473 41.1383 30.0458 41.4115 30.0458 41.819C30.0458 42.2265 29.911 42.3367 29.6125 42.4326V42.4422C29.8677 42.5332 29.9495 42.7058 29.9736 43.0749C30.0025 43.4728 30.041 43.5735 30.0891 43.607V43.6214H29.7521C29.6991 43.5783 29.6895 43.4824 29.6606 43.0653C29.6317 42.6483 29.4921 42.5716 29.1551 42.5716H28.4618V43.6214H28.1489V41.1383H28.144ZM28.457 42.3175H29.1984C29.5451 42.3175 29.7232 42.145 29.7232 41.8621C29.7232 41.5793 29.5836 41.4067 29.2177 41.4067H28.4618V42.3175H28.457Z" fill="#EBEBEB"/>
<path d="M32.1689 41.1383H33.3341C33.7722 41.1383 34.0707 41.4115 34.0707 41.819C34.0707 42.2265 33.9359 42.3367 33.6374 42.4326V42.4422C33.8926 42.5332 33.9744 42.7058 33.9985 43.0749C34.0274 43.4728 34.0659 43.5735 34.114 43.607V43.6214H33.777C33.724 43.5783 33.7144 43.4824 33.6855 43.0653C33.6615 42.701 33.517 42.5716 33.18 42.5716H32.4867V43.6214H32.1738V41.1383H32.1689ZM32.4819 42.3175H33.2233C33.57 42.3175 33.7481 42.145 33.7481 41.8621C33.7481 41.5793 33.6085 41.4067 33.2426 41.4067H32.4867V42.3175H32.4819Z" fill="#EBEBEB"/>
<path d="M36.9115 41.1383H37.263L38.1826 43.6214H37.8407L37.5759 42.864H36.5841L36.3145 43.6214H35.9919L36.9115 41.1383ZM36.6756 42.6099H37.4941L37.21 41.7759C37.1619 41.6368 37.0993 41.4259 37.0993 41.4259H37.0945C37.0945 41.4259 37.0271 41.632 36.9789 41.7759L36.6804 42.6099H36.6756Z" fill="#EBEBEB"/>
<path d="M39.9783 42.3798C39.9783 41.6511 40.4164 41.0855 41.1626 41.0855C41.9089 41.0855 42.0967 41.421 42.1641 41.8764H41.8559C41.7982 41.5696 41.5478 41.3539 41.153 41.3539C40.7582 41.3539 40.3008 41.7949 40.3008 42.3798C40.3008 42.9646 40.6379 43.396 41.1578 43.396C41.6778 43.396 41.8511 43.0748 41.8848 42.7105H42.193C42.193 42.955 42.0726 43.233 41.8945 43.4104C41.7211 43.5782 41.466 43.6692 41.1482 43.6692C40.4405 43.6692 39.9783 43.1324 39.9783 42.3798Z" fill="#EBEBEB"/>
<path d="M44.2871 41.1383H46.0492V41.4115H44.6001V42.1977H45.9144V42.4613H44.6001V43.3338H46.0877V43.6214H44.2871V41.1383Z" fill="#EBEBEB"/>
<path d="M48.0089 42.7823H48.317C48.3604 43.2042 48.6155 43.4199 49.0874 43.4199C49.5592 43.4199 49.6795 43.2617 49.6795 42.9549C49.6795 42.6481 49.381 42.5331 48.9333 42.4372C48.4952 42.3413 48.1148 42.2167 48.1148 41.7469C48.1148 41.2771 48.4566 41.0902 48.9622 41.0902C49.4677 41.0902 49.8432 41.4066 49.9058 41.8667H49.6073C49.564 41.512 49.3329 41.3347 48.967 41.3347C48.6011 41.3347 48.4037 41.4785 48.4037 41.7325C48.4037 41.9866 48.6829 42.0968 49.0537 42.1687C49.5399 42.2646 49.9829 42.3845 49.9829 42.9453C49.9829 43.5062 49.6025 43.6691 49.0633 43.6691C48.5241 43.6691 48.0282 43.2809 47.9993 42.7823H48.0089Z" fill="#EBEBEB"/>
<path d="M31.7501 29.3748H30.3298V38.0752H31.7501V29.3748Z" fill="#EBEBEB"/>
<path d="M12.9975 26.3309L8.47668 38.0465H10.0655L11.9046 33.2529H15.3615L17.1766 38.0465H18.2406L13.7053 26.3309H13.0024H12.9975ZM12.0828 32.7831L13.6427 28.7181L15.1834 32.7831H12.0828Z" fill="#EBEBEB"/>
<path d="M26.4493 35.1079C26.122 34.0293 25.6116 33.3103 24.4417 33.1952V33.1473C25.7127 33.1137 27.1089 32.5912 27.1089 30.8464C27.1089 29.1015 25.5683 28.1907 23.681 28.1907H20.0267V38.0464H21.4663V33.2671H23.1273C24.2972 33.2671 24.6535 34.0964 24.9857 35.1271L25.5249 36.7042C25.6453 37.0541 25.8523 37.6341 26.122 38.0464H27.7252C27.3641 37.5478 27.1282 37.102 26.9597 36.5508L26.4493 35.1079ZM23.3247 32.8357H21.4663V29.1015H23.3247C24.6872 29.1015 25.5875 29.6336 25.5875 30.9087C25.5875 32.1838 24.6006 32.8357 23.3247 32.8357Z" fill="#EBEBEB"/>
<path d="M38.0524 33.0946L36.9644 32.7734C35.9774 32.4954 35.5055 32.179 35.5055 31.4072C35.5055 30.6355 36.1892 30.0842 37.1714 30.0842C38.1536 30.0842 39.0491 30.6498 39.5113 31.5271L40.089 30.8416C39.5787 29.9404 38.5243 29.2549 37.1714 29.2549C35.8185 29.2549 34.3356 30.3047 34.3356 31.7572C34.3356 33.2096 35.1252 33.7082 36.4781 34.1012L37.5806 34.4224C38.4858 34.7004 39.0491 35.036 39.0491 35.8797C39.0491 36.7233 38.2498 37.3369 37.1955 37.3369C36.1411 37.3369 35.1445 36.8 34.5186 35.7071L33.9167 36.3207C34.4801 37.4568 35.7704 38.1998 37.2003 38.1998C38.6302 38.1998 40.219 37.15 40.219 35.4626C40.219 33.7753 39.3765 33.4829 38.0524 33.1042V33.0946Z" fill="#EBEBEB"/>
<path d="M48.6492 32.7831H43.9743V28.186H42.5588V38.0465H43.9743V33.2529H48.6492V38.0465H50.0455V28.186H48.6492V32.7831Z" fill="#EBEBEB"/>
<path d="M57.041 26.3309H56.338L51.8027 38.0465H52.8668L54.6818 33.2529H58.1387L59.9778 38.0465H61.5666L57.041 26.3309ZM54.8552 32.7831L56.3958 28.7181L57.9557 32.7831H54.8552Z" fill="#EBEBEB"/>
</g>
<defs>
<clipPath id="clip0_16_23310">
<rect width="54" height="18" fill="white" transform="translate(8 26)"/>
</clipPath>
</defs>
</svg>
