<svg xmlns="http://www.w3.org/2000/svg" width="102" height="102" fill="none" class="aS3Q0MJ_"><g filter="url(#\u0441ompass_svg__a)"><path fill="#DFDFDF" fill-rule="evenodd" d="M38.272 63.728c-7.018-7.018-7.018-18.438 0-25.457 7.018-7.018 18.439-7.017 25.456.001 7.018 7.018 7.018 18.438.001 25.456-7.019 7.018-18.438 7.018-25.457 0m1-1c6.468 6.468 16.99 6.468 23.458 0 6.466-6.466 6.465-16.989-.002-23.456s-16.99-6.468-23.456-.001-6.467 16.99 0 23.457m8.002-7.944-.019-.019-.015-.016-.027-.029a.8.8 0 0 1-.147-.227L42.658 43.68a.805.805 0 0 1 1.05-1.05l10.813 4.409a.8.8 0 0 1 .265.183l.033.033.026.028c.06.067.113.14.148.226L59.4 58.323a.804.804 0 0 1-1.05 1.049l-10.813-4.408a.8.8 0 0 1-.224-.144q-.02-.017-.039-.036m1.642-.561 9.005 3.67-3.67-9.005z" clip-rule="evenodd"></path><path fill="#EBEBEB" fill-opacity="0.5" d="M29.648 17.625V29h-1.515l-5.727-8.773V29h-1.508V17.625h1.508l5.75 8.797v-8.797zM83 27.773V29h-6.023v-1.227zm-5.719-10.148V29h-1.508V17.625zm4.922 4.89v1.227h-5.226v-1.226zm.719-4.89v1.234h-5.945v-1.234zM22.11 83.563l2.257-7.938h1.094l-.633 3.086L22.398 87h-1.085zm-2.337-7.938 1.797 7.781.54 3.594H21.03l-2.758-11.375zm8.61 7.773 1.758-7.773h1.507L28.898 87H27.82zm-2.758-7.773 2.195 7.938.797 3.437h-1.086l-2.343-8.29-.641-3.085zM81.633 84.125q0-.399-.125-.703a1.34 1.34 0 0 0-.422-.563q-.297-.25-.828-.476a12 12 0 0 0-1.328-.461 12 12 0 0 1-1.524-.555 5.3 5.3 0 0 1-1.164-.71 2.8 2.8 0 0 1-.742-.915 2.6 2.6 0 0 1-.258-1.18 2.77 2.77 0 0 1 1.055-2.203q.515-.421 1.226-.656a5 5 0 0 1 1.586-.234q1.282 0 2.172.492.9.484 1.367 1.273.47.782.47 1.672h-1.5q0-.64-.274-1.133a1.9 1.9 0 0 0-.828-.78q-.555-.29-1.407-.29-.804 0-1.328.242t-.781.657q-.25.413-.25.945 0 .36.148.656.157.29.477.54.328.25.828.46.508.21 1.211.406.969.274 1.672.61t1.156.758q.46.413.68.945.226.524.226 1.187 0 .696-.28 1.258a2.7 2.7 0 0 1-.805.961 3.9 3.9 0 0 1-1.258.617q-.727.21-1.625.211a5.6 5.6 0 0 1-1.555-.219 4.6 4.6 0 0 1-1.383-.656 3.4 3.4 0 0 1-.992-1.078q-.367-.648-.367-1.5h1.5q0 .586.226 1.008a2 2 0 0 0 .618.687q.398.274.898.407.507.125 1.055.125.789 0 1.336-.22.546-.217.828-.624.29-.405.289-.961"></path></g><defs><filter id="\u0441ompass_svg__a" width="126" height="126" x="-12" y="-12" color-interpolation-filters="sRGB" filterUnits="userSpaceOnUse"><feFlood flood-opacity="0" result="BackgroundImageFix"></feFlood><feGaussianBlur in="BackgroundImageFix" stdDeviation="6"></feGaussianBlur><feComposite in2="SourceAlpha" operator="in" result="effect1_backgroundBlur_185007_11614"></feComposite><feBlend in="SourceGraphic" in2="effect1_backgroundBlur_185007_11614" result="shape"></feBlend></filter></defs></svg>