<svg width="70" height="70" viewBox="0 0 70 70" fill="none" xmlns="http://www.w3.org/2000/svg">
<rect x="0.5" y="0.5" width="69" height="69" rx="34.5" fill="#1E1D1D"/>
<rect x="0.5" y="0.5" width="69" height="69" rx="34.5" stroke="#EBEBEB"/>
<path d="M15.7081 36.187C15.1721 35.8661 14.7557 35.4133 14.4589 34.8263C14.1621 34.2394 14.0126 33.5624 14.0126 32.793V29.9552C14.0126 29.1858 14.1642 28.5088 14.4653 27.9219C14.7664 27.335 15.1914 26.8821 15.7359 26.5612C16.2826 26.2403 16.9147 26.0798 17.6322 26.0798H19.1548C19.8339 26.0798 20.4382 26.2293 20.9635 26.5304C21.491 26.8316 21.8967 27.2558 22.185 27.8032C22.4733 28.3505 22.6164 28.9836 22.6164 29.7024H20.9635C20.9635 29.0715 20.797 28.5637 20.4617 28.1791C20.1264 27.7944 19.6908 27.6031 19.1548 27.6031H17.6322C17.0471 27.6031 16.5794 27.8252 16.2249 28.2692C15.8704 28.7132 15.6932 29.2957 15.6932 30.0145V32.7359C15.6932 33.4657 15.8662 34.0504 16.21 34.4878C16.5538 34.9275 17.0086 35.1451 17.5745 35.1451H19.1249C19.6801 35.1451 20.1307 34.9275 20.4745 34.4944C20.8183 34.0614 20.9913 33.4986 20.9913 32.8084H22.6442C22.6442 33.5778 22.4968 34.2526 22.2064 34.8351C21.9138 35.4155 21.5017 35.8683 20.9721 36.1892C20.4404 36.5101 19.8253 36.6706 19.127 36.6706H17.5767C16.8677 36.6706 16.2463 36.5101 15.7081 36.1892" fill="white"/>
<path d="M25.6189 36.2156C25.1021 35.9144 24.7007 35.4924 24.4188 34.945C24.1369 34.3977 23.996 33.7646 23.996 33.0458V26.1985H25.6766V33.015C25.6766 33.6569 25.8346 34.1713 26.1507 34.5604C26.4667 34.9494 26.8831 35.1451 27.3999 35.1451H28.9375C29.4649 35.1451 29.8877 34.9494 30.2102 34.5604C30.5305 34.1713 30.6907 33.6569 30.6907 33.015V26.1985H32.3713V33.0458C32.3713 33.7646 32.2282 34.3999 31.9399 34.945C31.6516 35.4924 31.2502 35.9166 30.7334 36.2156C30.2166 36.5167 29.6165 36.6662 28.9375 36.6662H27.3999C26.7294 36.6662 26.1357 36.5167 25.6189 36.2156Z" fill="white"/>
<path d="M39.4396 35.0396C39.9094 35.0396 40.2746 34.9319 40.5394 34.7142C40.8021 34.4966 40.9345 34.1977 40.9345 33.813V33.1469C40.9345 32.8128 40.8192 32.5446 40.5907 32.3402C40.36 32.138 40.0547 32.0369 39.6703 32.0369H35.9503V35.0396H39.4418H39.4396ZM39.1086 30.619C39.4631 30.619 39.7493 30.5003 39.9714 30.2629C40.1913 30.0277 40.3024 29.72 40.3024 29.3463V28.7396C40.3024 28.4231 40.1806 28.1725 39.9351 27.9856C39.6916 27.7988 39.367 27.7043 38.9656 27.7043H35.9481V30.619H39.1086ZM34.6135 36.2002C34.3828 35.9694 34.2697 35.6704 34.2697 35.3055V26.1963H39.0254C39.9158 26.1963 40.6312 26.4161 41.1736 26.8536C41.7139 27.2932 41.9851 27.8713 41.9851 28.5923V29.3463C41.9851 29.6914 41.904 30.0167 41.7417 30.3223C41.5794 30.6278 41.353 30.874 41.0669 31.0631V31.0785C41.5367 31.2367 41.9125 31.5027 42.1944 31.8764C42.4763 32.2523 42.6194 32.6765 42.6194 33.1491V33.8899C42.6194 34.7076 42.346 35.3561 41.7993 35.8353C41.2527 36.3145 40.5159 36.5519 39.587 36.5519H35.5082C35.1431 36.5519 34.8462 36.4354 34.6177 36.2046" fill="white"/>
<path d="M45.8759 26.1985H44.1953V36.5497H45.8759V26.1985Z" fill="white"/>
<path d="M53.978 26.1985L51.5372 29.8497L49.0942 26.1985H47.1979L50.5741 31.2697L47.0548 36.5497H48.9511L51.5372 32.6743L54.1083 36.5497H56.0046L52.4853 31.2697L55.8615 26.1985H53.978Z" fill="white"/>
<path d="M16.2868 41.2142C16.5217 41.2142 16.7097 41.1483 16.8549 41.0186C16.998 40.8867 17.0706 40.7153 17.0706 40.502V39.9723C17.0706 39.7986 17.015 39.6579 16.9019 39.5524C16.7887 39.4447 16.6413 39.392 16.4577 39.392H14.666V41.2142H16.289H16.2868ZM13.9955 38.7831H16.4705C16.8506 38.7831 17.1581 38.893 17.3909 39.1128C17.6237 39.3326 17.739 39.6228 17.739 39.9789V40.502C17.739 40.7526 17.6621 40.9768 17.5105 41.1703C17.3567 41.3637 17.1496 41.5044 16.8869 41.5923V41.5989C17.1645 41.7682 17.3717 42.0781 17.5083 42.5287L17.897 43.8652H17.2051L16.825 42.5595C16.7588 42.3331 16.6541 42.1529 16.5111 42.0232C16.368 41.8913 16.2036 41.8275 16.0199 41.8275H14.666V43.8674H13.9955V38.7875V38.7831Z" fill="white"/>
<path d="M18.7853 43.718C18.6893 43.6212 18.6401 43.4872 18.6401 43.3179V38.7809H22.1017V39.3832H19.3107V40.9658H21.8925V41.5616H19.3107V43.2607H22.1017V43.863H19.1761C19.0117 43.863 18.8814 43.8147 18.7853 43.718Z" fill="white"/>
<path d="M23.1759 43.5003C22.9025 43.219 22.7659 42.8431 22.7659 42.3683H23.4215C23.4215 42.654 23.5005 42.8805 23.6564 43.0497C23.8144 43.219 24.0215 43.3025 24.2799 43.3025H25.0636C25.322 43.3025 25.5292 43.2454 25.6829 43.131C25.8388 43.0167 25.9157 42.8651 25.9157 42.676V42.2847C25.9157 42.1353 25.8602 42.01 25.7491 41.9067C25.6381 41.8055 25.4822 41.7374 25.2793 41.7022L23.9959 41.4846C23.6201 41.4209 23.3296 41.289 23.1246 41.0845C22.9196 40.8801 22.8171 40.6273 22.8171 40.3218V39.9239C22.8171 39.5612 22.9517 39.2689 23.2229 39.049C23.4941 38.8292 23.8486 38.7193 24.2906 38.7193H25.0871C25.3647 38.7193 25.6103 38.7787 25.8239 38.8974C26.0374 39.0161 26.204 39.1831 26.3214 39.3985C26.4389 39.614 26.4987 39.8602 26.4987 40.1415H25.8367C25.8367 39.8997 25.7683 39.7063 25.6317 39.5568C25.495 39.4095 25.3135 39.3348 25.0893 39.3348H24.2927C24.0536 39.3348 23.8592 39.3898 23.7119 39.4975C23.5645 39.6074 23.4898 39.7547 23.4898 39.9437V40.2712C23.4898 40.4273 23.5432 40.5548 23.6478 40.6559C23.7525 40.757 23.9041 40.8274 24.1027 40.8669L25.3711 41.0911C25.7619 41.1593 26.0609 41.2912 26.2702 41.4868C26.4795 41.6825 26.5841 41.9286 26.5841 42.2232V42.6958C26.5841 43.0629 26.4453 43.3597 26.172 43.5817C25.8965 43.8037 25.5313 43.9158 25.0765 43.9158H24.265C23.808 43.9158 23.445 43.7751 23.1716 43.4937" fill="white"/>
<path d="M28.1686 38.7831H27.498V43.863H28.1686V38.7831Z" fill="white"/>
<path d="M31.4402 43.2454C31.8075 43.2454 32.0851 43.142 32.2731 42.9332C32.461 42.7244 32.5549 42.4144 32.5549 42.0034V40.4932C32.5549 40.1635 32.4503 39.8997 32.241 39.6975C32.0317 39.4975 31.7563 39.3964 31.4125 39.3964H29.9518V43.2432H31.4402V43.2454ZM29.4265 43.718C29.3304 43.6212 29.2812 43.4872 29.2812 43.3179V38.7809H31.4317C31.7883 38.7809 32.1022 38.8512 32.3734 38.9919C32.6425 39.1326 32.8539 39.3304 33.0012 39.5898C33.1486 39.8492 33.2233 40.1459 33.2233 40.48V42.0188C33.2233 42.6233 33.0739 43.0827 32.7749 43.3926C32.4759 43.7048 32.0381 43.8608 31.4594 43.8608H29.8151C29.6507 43.8608 29.5204 43.8125 29.4243 43.7158" fill="white"/>
<path d="M34.2441 43.718C34.148 43.6212 34.0989 43.4872 34.0989 43.3179V38.7809H37.5605V39.3832H34.7694V40.9658H37.3491V41.5616H34.7694V43.2607H37.5605V43.863H34.6349C34.4704 43.863 34.3402 43.8147 34.2441 43.718Z" fill="white"/>
<path d="M41.6221 38.7831V42.753L39.0147 38.7831H38.3933V43.863H39.0489V39.9063L41.6649 43.863H42.2799V38.7831H41.6221Z" fill="white"/>
<path d="M43.9776 43.6894C43.7234 43.5355 43.527 43.3157 43.3882 43.0321C43.2494 42.7486 43.181 42.421 43.181 42.0495V40.5988C43.181 40.2273 43.2515 39.8975 43.3924 39.6162C43.5334 39.3326 43.732 39.115 43.9882 38.9589C44.2445 38.805 44.5413 38.7259 44.8809 38.7259H45.6283C45.9486 38.7259 46.2305 38.7984 46.4782 38.9413C46.7259 39.0842 46.916 39.2842 47.0505 39.5392C47.185 39.7964 47.2512 40.091 47.2512 40.4251H46.5957C46.5957 40.102 46.5081 39.8404 46.3309 39.6403C46.1557 39.4425 45.9208 39.3436 45.6283 39.3436H44.8809C44.5755 39.3436 44.3278 39.4601 44.1377 39.6931C43.9477 39.9261 43.8516 40.2317 43.8516 40.6141V42.0364C43.8516 42.4188 43.9434 42.7266 44.127 42.9574C44.3107 43.1904 44.552 43.3069 44.8531 43.3069H45.6155C45.9166 43.3069 46.1579 43.197 46.3373 42.9772C46.5188 42.7574 46.6085 42.4672 46.6085 42.1089H47.2641C47.2641 42.4672 47.1957 42.7837 47.059 43.0607C46.9224 43.3355 46.7302 43.5487 46.4803 43.7004C46.2305 43.8499 45.9422 43.9246 45.6133 43.9246H44.851C44.5221 43.9246 44.2295 43.8477 43.9776 43.6916" fill="white"/>
<path d="M48.1844 43.718C48.0883 43.6212 48.0392 43.4872 48.0392 43.3179V38.7809H51.5008V39.3832H48.7076V40.9658H51.2872V41.5616H48.7076V43.2607H51.5008V43.863H48.5731C48.4086 43.863 48.2784 43.8147 48.1823 43.718" fill="white"/>
<path d="M52.5749 43.5003C52.3016 43.219 52.1649 42.8431 52.1649 42.3683H52.8205C52.8205 42.654 52.8995 42.8805 53.0575 43.0497C53.2156 43.219 53.4227 43.3025 53.6811 43.3025H54.4648C54.7232 43.3025 54.9304 43.2454 55.0862 43.131C55.2421 43.0167 55.319 42.8651 55.319 42.676V42.2847C55.319 42.1353 55.2635 42.01 55.1524 41.9067C55.0414 41.8055 54.8855 41.7374 54.6848 41.7022L53.4014 41.4846C53.0255 41.4209 52.7351 41.289 52.5301 41.0845C52.3251 40.8801 52.2247 40.6273 52.2247 40.3218V39.9239C52.2247 39.5612 52.3592 39.2689 52.6305 39.049C52.9017 38.8292 53.2561 38.7193 53.6982 38.7193H54.4947C54.7723 38.7193 55.0179 38.7787 55.2315 38.8974C55.445 39.0161 55.6116 39.1831 55.729 39.3985C55.8465 39.614 55.9063 39.8602 55.9063 40.1415H55.2443C55.2443 39.8997 55.1759 39.7063 55.0393 39.5568C54.9026 39.4095 54.7211 39.3348 54.4969 39.3348H53.7003C53.4612 39.3348 53.2668 39.3898 53.1173 39.4975C52.97 39.6074 52.8952 39.7547 52.8952 39.9437V40.2712C52.8952 40.4273 52.9486 40.5548 53.0533 40.6559C53.16 40.757 53.3095 40.8274 53.5081 40.8669L54.7766 41.0911C55.1674 41.1593 55.4664 41.2912 55.6756 41.4868C55.8849 41.6825 55.9896 41.9286 55.9896 42.2232V42.6958C55.9896 43.0629 55.8529 43.3597 55.5774 43.5817C55.3019 43.8037 54.9368 43.9158 54.4819 43.9158H53.6704C53.2134 43.9158 52.8504 43.7751 52.5771 43.4937" fill="white"/>
</svg>
