<svg xmlns="http://www.w3.org/2000/svg" width="74" height="78" fill="none" class="GUntoMTM"><path fill="#fff" d="M29.498 46.224q-.064-10.43-.04-20.78.006-1.983.295-2.836a6.1 6.1 0 0 1 1.57-2.438c1.858-1.794 5.153-1.684 7.063.041 1.371 1.239 1.885 2.699 1.868 4.552q-.04 4.62-.015 8.873 0 .233.195.122c.488-.28.953-.618 1.506-.734q2.71-.576 4.704 1.024c.585.468.875 1.1 1.368 1.638.201.22.221.487.313.761a.19.19 0 0 0 .113.114.17.17 0 0 0 .156-.024c2.748-2.06 6.652-.934 8.054 2.25q.543 1.23.517 3.513a546 546 0 0 0-.032 6.798q.003.915-.12 2.012c-.1.89-.127 1.812-.307 2.68-1.225 5.921-4.853 10.43-10.028 13.132-.969.507-1.927.704-2.928 1.065q-.59.216-1.207.32-3.396.587-6.959.056-.871-.13-2.862-.86c-2.564-.94-4.403-2.447-6.247-4.425a14 14 0 0 1-1.44-1.818c-.726-1.095-1.451-2.116-2.131-3.283q-3.245-5.565-5.487-10.756-1.119-2.587.292-5.088 1.679-2.97 4.957-2.79c1.491.08 3.204.781 3.987 2.148.252.442.605.764.806 1.242q.393.921.952 1.748c.373.547.671 1.164.966 1.773q.12.248.12-.03m2.04 5.695c-.58.576-1.492.474-1.917-.236a99 99 0 0 1-2.67-4.763c-.505-.958-1.162-1.806-1.558-2.83-.249-.644-.72-1.062-1.1-1.605a.5.5 0 0 0-.293-.206 4.5 4.5 0 0 1-.695-.239c-.917-.403-2.133-.08-2.822.558q-1.68 1.564-.68 3.916 1.57 3.677 4.022 8.094c1.967 3.542 3.674 6.357 6.62 8.804 2.87 2.388 7.141 2.99 10.772 2.549a10 10 0 0 0 1.828-.394q1.313-.418 1.778-.606c4.79-1.96 8.375-6.387 9.462-11.58.184-.874.232-1.707.321-2.602q.092-.937.098-1.896.022-4.061-.014-7.404-.032-2.638-2.25-3.304a2.55 2.55 0 0 0-1.87.132c-.777.364-1.683 1.256-1.772 2.223q-.055.576-.129 1.152a.45.45 0 0 1-.115.254c-.886.984-2.438.453-2.326-.973q.1-1.29.012-2.6c-.144-2.178-2.36-3.584-4.205-2.632-.944.486-1.61 1.42-1.658 2.552-.046 1.032.029 2.381-1.328 2.474q-.407.03-.91-.615a1.5 1.5 0 0 1-.32-.937q-.03-6.57-.009-13.332.003-.418.017-.86.052-1.59-.763-2.554-.82-.967-2.105-1.02c-1.755-.073-3.032 1.294-3.037 3.115q-.03 6.957-.038 26.007c0 .43-.026 1.041-.347 1.358M12.83 31.927a518 518 0 0 1 3.723-6.622c.7-1.221 2.491-.255 1.74 1.085q-1.823 3.25-3.594 6.4-.15.269.143.178a82 82 0 0 1 3.18-.903c.668-.178 1.21.039 1.357.733q.204.977-.71 1.236-3.132.892-5.952 1.69a1.076 1.076 0 0 1-1.335-.756q-.723-2.675-1.595-5.751c-.2-.708.05-1.118.69-1.39q.93-.4 1.225.576.58 1.908 1.007 3.51.042.153.12.014M24.197 11.449q-1.672.48-3.364.955-.981.277-1.356-.704c-.217-.568.41-1.199.833-1.317q2.976-.835 5.927-1.675a.97.97 0 0 1 1.203.694q.722 2.89 1.664 6.13c.14.482-.234 1.364-.894 1.257-.405-.067-.864-.2-.996-.644q-.54-1.825-.902-3.37-.105-.45-.33-.046a577 577 0 0 1-3.666 6.487c-.684 1.195-2.453.202-1.738-1.075q1.875-3.356 3.707-6.581.093-.162-.088-.111"/></svg>