<svg width="70" height="70" viewBox="0 0 70 70" fill="none" xmlns="http://www.w3.org/2000/svg">
<rect x="0.5" y="0.5" width="69" height="69" rx="34.5" fill="#1E1D1D"/>
<rect x="0.5" y="0.5" width="69" height="69" rx="34.5" stroke="#EBEBEB"/>
<path d="M9.53735 41.9557V39.2566H10.5699C10.7559 39.2566 10.9209 39.2891 11.0646 39.3543C11.2083 39.4196 11.3212 39.5163 11.4033 39.6441C11.4855 39.7722 11.5264 39.9305 11.5264 40.1188C11.5264 40.3071 11.4842 40.4589 11.3996 40.5881C11.3151 40.7172 11.2015 40.8146 11.0592 40.8799L11.6752 41.9561H11.0446L10.3779 40.7642L10.7403 40.9779H10.0989V41.9561H9.53735V41.9557ZM10.0989 40.4883H10.5736C10.6534 40.4883 10.7221 40.4728 10.7802 40.4413C10.838 40.4099 10.8833 40.3666 10.9161 40.3108C10.9486 40.2554 10.9652 40.1911 10.9652 40.1188C10.9652 40.0464 10.9489 39.9788 10.9161 39.923C10.8837 39.8676 10.8384 39.824 10.7802 39.7925C10.7224 39.7611 10.6534 39.7455 10.5736 39.7455H10.0989V40.4883Z" fill="url(#paint0_linear_16_23260)"/>
<path d="M15.1421 41.9557V39.2566H16.9574V39.7459H15.7037V40.3582H16.8847V40.8474H15.7037V41.4668H16.9574V41.9561H15.1421V41.9557Z" fill="url(#paint1_linear_16_23260)"/>
<path d="M21.446 41.9991C21.277 41.9991 21.1181 41.9684 20.9696 41.9068C20.8212 41.8453 20.6931 41.7577 20.5855 41.6441C20.478 41.5305 20.3976 41.3966 20.3445 41.2421L20.8046 41.0355C20.8723 41.1829 20.9659 41.2989 21.0853 41.3834C21.205 41.468 21.3372 41.5102 21.4819 41.5102C21.5593 41.5102 21.6256 41.4981 21.681 41.4741C21.7365 41.45 21.7801 41.4166 21.8115 41.3743C21.843 41.332 21.8585 41.282 21.8585 41.2239C21.8585 41.161 21.8392 41.1072 21.8007 41.0626C21.7622 41.0179 21.7016 40.9824 21.6195 40.9557L21.0907 40.782C20.8756 40.712 20.714 40.6122 20.6052 40.4831C20.4966 40.3539 20.4422 40.1987 20.4422 40.0175C20.4422 39.8579 20.4814 39.7179 20.5599 39.5972C20.6383 39.4765 20.7482 39.3822 20.8895 39.3146C21.0308 39.247 21.1931 39.2132 21.3767 39.2132C21.5387 39.2132 21.6881 39.2409 21.8261 39.2963C21.9637 39.3518 22.0827 39.4302 22.1828 39.532C22.2828 39.6334 22.3586 39.7555 22.4093 39.8978L21.9528 40.1044C21.9021 39.979 21.8261 39.8802 21.7246 39.8092C21.6232 39.7379 21.5072 39.7024 21.3767 39.7024C21.3017 39.7024 21.2354 39.7146 21.1776 39.7386C21.1198 39.7626 21.0748 39.7971 21.0437 39.8417C21.0122 39.8863 20.9967 39.9377 20.9967 39.9955C20.9967 40.0584 21.0173 40.1132 21.0582 40.1605C21.0991 40.2075 21.161 40.2444 21.2432 40.2711L21.7611 40.4378C21.9785 40.5077 22.1408 40.6058 22.2483 40.7312C22.3559 40.857 22.4096 41.0102 22.4096 41.1914C22.4096 41.3483 22.3687 41.4879 22.2866 41.61C22.2044 41.732 22.0915 41.8274 21.9478 41.8963C21.8041 41.9653 21.6367 41.9995 21.446 41.9995V41.9991Z" fill="url(#paint2_linear_16_23260)"/>
<path d="M25.9965 41.9557V39.2566H26.5581V41.9557H25.9965Z" fill="url(#paint3_linear_16_23260)"/>
<path d="M30.2245 41.9557V39.2566H31.1049C31.397 39.2566 31.6506 39.3144 31.8656 39.4304C32.0807 39.5464 32.2474 39.7056 32.3657 39.9085C32.484 40.1114 32.5432 40.3433 32.5432 40.604C32.5432 40.8647 32.484 41.0973 32.3657 41.3015C32.2474 41.5057 32.0807 41.6656 31.8656 41.7816C31.6506 41.8976 31.397 41.9554 31.1049 41.9554H30.2245V41.9557ZM30.7861 41.4665H31.1194C31.2956 41.4665 31.4477 41.431 31.5759 41.3596C31.704 41.2883 31.8034 41.1882 31.8748 41.0591C31.9461 40.9299 31.9816 40.7784 31.9816 40.6043C31.9816 40.4302 31.9461 40.276 31.8748 40.1479C31.8034 40.0197 31.704 39.921 31.5759 39.8507C31.4477 39.7807 31.2956 39.7455 31.1194 39.7455H30.7861V41.4665Z" fill="url(#paint4_linear_16_23260)"/>
<path d="M36.0903 41.9557V39.2566H37.9056V39.7459H36.6519V40.3582H37.8329V40.8474H36.6519V41.4668H37.9056V41.9561H36.0903V41.9557Z" fill="url(#paint5_linear_16_23260)"/>
<path d="M41.4129 41.9557V39.2566H41.844L43.2931 41.1659L43.0612 41.2203V39.2566H43.6228V41.9557H43.188L41.7642 40.0319L41.9742 39.9775V41.9557H41.4126H41.4129Z" fill="url(#paint6_linear_16_23260)"/>
<path d="M48.572 41.9991C48.3786 41.9991 48.1994 41.964 48.034 41.894C47.8687 41.824 47.7243 41.7263 47.6013 41.6005C47.4782 41.4751 47.3822 41.3277 47.3132 41.1586C47.2442 40.9895 47.2101 40.8049 47.2101 40.6041C47.2101 40.4033 47.2439 40.2183 47.3115 40.0479C47.3791 39.8775 47.4745 39.7304 47.5975 39.606C47.7206 39.4816 47.865 39.3849 48.0307 39.3163C48.196 39.2473 48.3765 39.2132 48.5723 39.2132C48.7681 39.2132 48.9435 39.2456 49.0994 39.3109C49.2553 39.3761 49.3875 39.463 49.496 39.5719C49.6045 39.6804 49.682 39.8015 49.7279 39.9343L49.2316 40.1734C49.1856 40.0429 49.1055 39.935 48.9905 39.8491C48.8759 39.7636 48.7363 39.7206 48.572 39.7206C48.4076 39.7206 48.2724 39.7582 48.1517 39.8329C48.031 39.908 47.9373 40.0111 47.8711 40.1426C47.8045 40.2741 47.7713 40.4283 47.7713 40.6044C47.7713 40.7806 47.8045 40.9355 47.8711 41.0683C47.9373 41.2012 48.031 41.305 48.1517 41.3801C48.2724 41.4551 48.4124 41.4923 48.572 41.4923C48.7316 41.4923 48.8756 41.4494 48.9905 41.3638C49.1052 41.2783 49.1856 41.1701 49.2316 41.0396L49.7279 41.2786C49.682 41.4115 49.6049 41.5322 49.496 41.6411C49.3875 41.7496 49.2549 41.8368 49.0994 41.9021C48.9435 41.9673 48.7681 41.9998 48.5723 41.9998L48.572 41.9991Z" fill="url(#paint7_linear_16_23260)"/>
<path d="M53.2743 41.9557V39.2566H55.0896V39.7459H53.8359V40.3582H55.0169V40.8474H53.8359V41.4668H55.0896V41.9561H53.2743V41.9557Z" fill="url(#paint8_linear_16_23260)"/>
<path d="M59.5783 41.9991C59.4093 41.9991 59.2504 41.9684 59.102 41.9068C58.9535 41.8453 58.8254 41.7577 58.7179 41.6441C58.6104 41.5305 58.5299 41.3966 58.4768 41.2421L58.937 41.0355C59.0046 41.1829 59.0982 41.2989 59.2176 41.3834C59.3373 41.468 59.4695 41.5102 59.6142 41.5102C59.6916 41.5102 59.7579 41.4981 59.8133 41.4741C59.8688 41.45 59.9124 41.4166 59.9438 41.3743C59.9753 41.332 59.9908 41.282 59.9908 41.2239C59.9908 41.161 59.9716 41.1072 59.933 41.0626C59.8945 41.0179 59.834 40.9824 59.7518 40.9557L59.2227 40.782C59.0076 40.712 58.846 40.6122 58.7371 40.4831C58.6286 40.3539 58.5742 40.1987 58.5742 40.0175C58.5742 39.8579 58.6134 39.7179 58.6918 39.5972C58.7703 39.4765 58.8802 39.3822 59.0215 39.3146C59.1628 39.247 59.3251 39.2132 59.5087 39.2132C59.6707 39.2132 59.8204 39.2409 59.958 39.2963C60.0957 39.3518 60.2147 39.4302 60.3151 39.532C60.4152 39.6334 60.4909 39.7555 60.5416 39.8978L60.0852 40.1044C60.0344 39.979 59.9584 39.8802 59.8569 39.8092C59.7555 39.7379 59.6395 39.7024 59.509 39.7024C59.4343 39.7024 59.3677 39.7146 59.3099 39.7386C59.2521 39.7626 59.2071 39.7971 59.176 39.8417C59.1446 39.8863 59.129 39.9377 59.129 39.9955C59.129 40.0584 59.1496 40.1132 59.1905 40.1605C59.2315 40.2075 59.2933 40.2444 59.3751 40.2711L59.8931 40.4378C60.1105 40.5077 60.2728 40.6058 60.3803 40.7312C60.4879 40.857 60.5416 41.0102 60.5416 41.1914C60.5416 41.3483 60.5004 41.4879 60.4185 41.61C60.3364 41.732 60.2235 41.8274 60.0798 41.8963C59.9361 41.9653 59.7687 41.9995 59.578 41.9995L59.5783 41.9991Z" fill="url(#paint9_linear_16_23260)"/>
<path d="M16.1829 28.1192L14.1536 32.7763L12.1574 28.1192L11.2181 30.0333L14.1701 36.7331V36.7328V36.7331L17.1218 30.0339L16.1829 28.1192Z" fill="white"/>
<path d="M9.4231 36.7332H11.0572L12.8748 29.843L12.1408 28.1129H11.5552L9.4231 36.7332Z" fill="white"/>
<path d="M18.913 36.7333H17.279L15.4613 29.8171L16.1953 28.113H16.7809L18.913 36.7333Z" fill="white"/>
<path d="M28.7018 28.1242H25.4036V36.7327H28.6369C31.225 36.7327 32.8168 34.8505 32.8168 32.3276C32.8168 29.8046 31.1787 28.1242 28.7018 28.1242ZM28.5547 35.4124H27.018V29.2836L25.4293 29.4445H28.5631C30.3936 29.4445 31.1436 30.8321 31.1436 32.3387C31.1436 34.108 30.3338 35.4124 28.5547 35.4124Z" fill="white"/>
<path d="M20.9663 29.4628H22.5469V28.1242H20.9321V36.7327H22.5469V29.3712L20.9663 29.4628Z" fill="white"/>
<path d="M49.5609 33.0791H47.7527L49.477 36.7326H51.2595L49.5609 33.0791Z" fill="white"/>
<path d="M51.252 30.7347C51.252 29.1213 50.0432 28.1242 48.2665 28.1242H44.8057V36.7327H46.4242V33.4075H48.2148C49.9076 33.4075 51.2523 32.5389 51.2523 30.7347H51.252ZM46.4238 32.1044V29.2836L44.8385 29.4286H46.4238V29.4273H48.0819C48.9464 29.4273 49.6135 29.8252 49.6135 30.7686C49.6135 31.7119 49.011 32.1047 48.041 32.1047H46.4238V32.1044Z" fill="white"/>
<path d="M38.8369 27.9998C36.1869 27.9998 34.6654 29.9378 34.6654 32.4286C34.6654 34.9195 36.0794 36.8575 38.7237 36.8575C41.368 36.8575 42.8915 34.7788 42.8915 32.3925C42.8915 29.7833 41.323 27.9998 38.8369 27.9998ZM38.7872 35.528C37.1498 35.528 36.3387 34.1334 36.3387 32.3911C36.3387 31.5502 36.5148 30.8057 36.8878 30.2604C36.8878 30.2604 37.1785 29.9301 37.5109 29.7032C37.9552 29.3992 38.5834 29.3384 38.5834 29.3384C38.6446 29.3347 38.7047 29.3289 38.7686 29.3289C40.471 29.3289 41.2185 30.7074 41.2185 32.4134C41.2185 34.1195 40.5606 35.528 38.7876 35.528H38.7872Z" fill="white"/>
<path d="M52.5001 36.7331H54.2826C54.5409 36.0782 54.7995 35.4233 55.0579 34.7684H58.019C58.2773 35.4233 58.5359 36.0782 58.7942 36.7331H60.5767L57.0391 28.0868H56.0373C54.858 30.9688 53.6791 33.8511 52.4998 36.7331H52.5001ZM55.6289 33.3842C55.9329 32.6437 56.2365 31.9033 56.5404 31.1628C56.8444 31.9033 57.148 32.6437 57.452 33.3842H55.6292H55.6289Z" fill="white"/>
<defs>
<linearGradient id="paint0_linear_16_23260" x1="10.6061" y1="41.9557" x2="10.6061" y2="39.2563" gradientUnits="userSpaceOnUse">
<stop stop-color="#CDAA89"/>
<stop offset="0.75" stop-color="#A77B5B"/>
</linearGradient>
<linearGradient id="paint1_linear_16_23260" x1="16.0499" y1="23.3627" x2="16.0499" y2="23.3627" gradientUnits="userSpaceOnUse">
<stop stop-color="#CDAA89"/>
<stop offset="0.75" stop-color="#A77B5B"/>
</linearGradient>
<linearGradient id="paint2_linear_16_23260" x1="21.3774" y1="41.9991" x2="21.3774" y2="39.2132" gradientUnits="userSpaceOnUse">
<stop stop-color="#CDAA89"/>
<stop offset="0.75" stop-color="#A77B5B"/>
</linearGradient>
<linearGradient id="paint3_linear_16_23260" x1="26.2774" y1="23.3627" x2="26.2774" y2="23.3627" gradientUnits="userSpaceOnUse">
<stop stop-color="#CDAA89"/>
<stop offset="0.75" stop-color="#A77B5B"/>
</linearGradient>
<linearGradient id="paint4_linear_16_23260" x1="31.3838" y1="23.3627" x2="31.3838" y2="23.3627" gradientUnits="userSpaceOnUse">
<stop stop-color="#CDAA89"/>
<stop offset="0.75" stop-color="#A77B5B"/>
</linearGradient>
<linearGradient id="paint5_linear_16_23260" x1="36.9981" y1="23.3627" x2="36.9981" y2="23.3627" gradientUnits="userSpaceOnUse">
<stop stop-color="#CDAA89"/>
<stop offset="0.75" stop-color="#A77B5B"/>
</linearGradient>
<linearGradient id="paint6_linear_16_23260" x1="42.5179" y1="23.3627" x2="42.5179" y2="23.3627" gradientUnits="userSpaceOnUse">
<stop stop-color="#CDAA89"/>
<stop offset="0.75" stop-color="#A77B5B"/>
</linearGradient>
<linearGradient id="paint7_linear_16_23260" x1="48.4685" y1="41.9991" x2="48.4685" y2="39.2132" gradientUnits="userSpaceOnUse">
<stop stop-color="#CDAA89"/>
<stop offset="0.75" stop-color="#A77B5B"/>
</linearGradient>
<linearGradient id="paint8_linear_16_23260" x1="54.1818" y1="23.3627" x2="54.1818" y2="23.3627" gradientUnits="userSpaceOnUse">
<stop stop-color="#CDAA89"/>
<stop offset="0.75" stop-color="#A77B5B"/>
</linearGradient>
<linearGradient id="paint9_linear_16_23260" x1="59.5094" y1="41.9991" x2="59.5094" y2="39.2132" gradientUnits="userSpaceOnUse">
<stop stop-color="#CDAA89"/>
<stop offset="0.75" stop-color="#A77B5B"/>
</linearGradient>
</defs>
</svg>
