<svg xmlns="http://www.w3.org/2000/svg" fill="#fff" viewBox="0 0 32 20" class="YAjgJAtI"><path d="M3.481 10.395c-5.789 3.152 9.805 5.067 13.318 5.036v-1.923l2.92 2.894-2.92 2.9V17.5c-7.06.267-23.677-4.242-13.682-7.984q.141.439.338.827zm24.982-.282c2.75 1.388 2.094 3.357-2.776 4.553-1.38.338-2.94.646-4.651.772v1.564c1.904-.132 3.674-.566 5.224-.938 7.323-1.76 7.068-4.902 2.437-6.675a6 6 0 0 1-.234.724" clip-rule="evenodd"></path><path d="M28.273 2.46q0-.48.237-.88.236-.401.63-.638.402-.244.868-.244.474 0 .861.244.389.236.618.637.237.402.237.881 0 .48-.237.88-.23.396-.618.625-.387.23-.86.23-.468 0-.868-.23a1.76 1.76 0 0 1-.631-.624 1.7 1.7 0 0 1-.237-.88m.887 0q0 .355.25.598a.84.84 0 0 0 .598.237.81.81 0 0 0 .822-.835.84.84 0 0 0-.237-.611.78.78 0 0 0-.585-.243.83.83 0 0 0-.598.243.82.82 0 0 0-.25.611M26.735 4.82v1.564q0 1.124-.223 1.92-.217.787-.631 1.281t-.993.723q-.571.23-1.282.23-.565 0-1.051-.145a2.57 2.57 0 0 1-1.532-1.248q-.27-.494-.42-1.177a7.7 7.7 0 0 1-.145-1.584V4.82q0-1.131.224-1.907.223-.782.637-1.268.414-.493.986-.717a3.6 3.6 0 0 1 1.288-.223q.572 0 1.052.144a2.46 2.46 0 0 1 1.525 1.23q.276.48.42 1.163.145.676.145 1.578m-1.584 1.787V4.583a7 7 0 0 0-.066-1.006 3 3 0 0 0-.197-.743 1.5 1.5 0 0 0-.315-.5 1.1 1.1 0 0 0-.434-.282 1.5 1.5 0 0 0-.546-.092 1.45 1.45 0 0 0-.657.145 1.2 1.2 0 0 0-.486.447q-.198.309-.303.815a6.4 6.4 0 0 0-.098 1.216v2.024q0 .579.065 1.02.066.44.198.755.13.309.315.513.19.197.434.289.249.092.546.092.374 0 .663-.145.29-.144.487-.46.197-.322.295-.834.1-.513.1-1.23M17.631.777h.197v1.295h-.111q-.848 0-1.466.263a2.7 2.7 0 0 0-1.006.723 3.1 3.1 0 0 0-.591 1.078q-.19.61-.191 1.301v1.506q0 .57.125 1.012.125.433.348.73.23.288.526.44.296.15.638.151.354 0 .644-.145.29-.15.493-.414a1.9 1.9 0 0 0 .309-.624q.105-.361.105-.789 0-.408-.105-.762a1.9 1.9 0 0 0-.296-.631 1.36 1.36 0 0 0-.493-.428 1.4 1.4 0 0 0-.67-.157q-.474 0-.861.223-.382.224-.618.585a1.5 1.5 0 0 0-.25.756l-.605-.197q.052-.612.27-1.098.223-.486.585-.828.36-.342.834-.52.48-.183 1.052-.183.697 0 1.21.263.512.263.847.716.342.447.507 1.025.17.572.17 1.197 0 .69-.21 1.288a3 3 0 0 1-.618 1.039q-.4.446-.98.696-.57.25-1.3.25-.77 0-1.374-.296a3 3 0 0 1-1.02-.815 3.7 3.7 0 0 1-.63-1.196 4.7 4.7 0 0 1-.217-1.433v-.657q0-1.092.276-2.058.276-.972.848-1.715a4 4 0 0 1 1.479-1.164q.9-.427 2.15-.427M7.056 4.905h.946q.552 0 .914-.19.367-.192.546-.526.177-.336.177-.77 0-.453-.164-.775a1.1 1.1 0 0 0-.487-.506q-.321-.178-.821-.178-.42 0-.763.171-.334.164-.532.473a1.3 1.3 0 0 0-.197.723H5.084q0-.762.4-1.354a2.7 2.7 0 0 1 1.092-.926A3.5 3.5 0 0 1 8.14.705q.927 0 1.617.309.697.302 1.085.907.387.605.388 1.498 0 .408-.19.829-.191.42-.566.769-.375.342-.934.558-.558.21-1.294.21h-1.19zm0 1.236v-.868h1.19q.84 0 1.432.197.599.198.973.546.375.341.546.782.177.441.177.933 0 .67-.243 1.197-.236.52-.677.88a3 3 0 0 1-1.032.546 4.2 4.2 0 0 1-1.275.184q-.618 0-1.183-.17a3.2 3.2 0 0 1-1.012-.507 2.5 2.5 0 0 1-.71-.848 2.6 2.6 0 0 1-.257-1.183H6.57q0 .428.198.756.203.322.565.506.368.184.841.184.5 0 .861-.177.361-.178.552-.526.198-.349.198-.842 0-.558-.217-.907a1.28 1.28 0 0 0-.618-.512 2.4 2.4 0 0 0-.947-.171z"></path></svg>